export default{"glyphs":{"0":{"ha":857,"x_min":53,"x_max":806,"o":"m 53 508 q 153 924 53 781 q 444 1068 254 1068 q 806 532 806 1068 q 707 125 806 269 q 423 -18 609 -18 q 53 508 53 -18 m 275 513 q 430 150 275 150 q 583 524 583 150 q 434 900 583 900 q 275 513 275 900 z "},"2":{"ha":857,"x_min":79,"x_max":774,"o":"m 764 0 l 79 0 l 79 172 l 381 462 q 514 614 476 553 q 552 743 552 676 q 391 892 552 892 q 130 784 256 892 l 130 979 q 437 1068 265 1068 q 683 989 592 1068 q 774 770 774 910 q 550 384 774 586 l 331 186 l 331 182 l 764 182 l 764 0 z "},"3":{"ha":857,"x_min":107,"x_max":770,"o":"m 107 229 q 353 150 212 150 q 494 189 441 150 q 546 301 546 229 q 484 415 546 376 q 310 454 422 454 l 216 454 l 216 623 l 302 623 q 514 766 514 623 q 352 900 514 900 q 146 831 246 900 l 146 1012 q 402 1068 255 1068 q 644 999 551 1068 q 737 808 737 930 q 528 549 737 602 l 528 546 q 704 466 638 534 q 770 300 770 397 q 660 66 770 150 q 368 -18 551 -18 q 107 35 206 -18 l 107 229 z "},"5":{"ha":857,"x_min":119,"x_max":771,"o":"m 119 217 q 347 150 229 150 q 494 195 439 150 q 548 320 548 241 q 322 483 548 483 q 150 471 254 483 l 150 1050 l 723 1050 l 723 870 l 338 870 l 338 649 q 426 654 378 654 q 677 570 584 654 q 771 339 771 486 q 662 78 771 175 q 370 -18 552 -18 q 119 27 218 -18 l 119 217 z "},"6":{"ha":857,"x_min":75,"x_max":806,"o":"m 733 854 q 559 900 653 900 q 365 805 437 900 q 292 558 292 709 l 296 558 q 519 673 371 673 q 729 583 651 673 q 806 347 806 492 q 705 85 806 189 q 447 -18 604 -18 q 171 112 267 -18 q 75 469 75 242 q 199 902 75 735 q 545 1068 323 1068 q 733 1040 665 1068 l 733 854 m 299 345 q 340 207 299 264 q 447 150 380 150 q 553 202 514 150 q 591 333 591 254 q 446 510 591 510 q 339 463 380 510 q 299 345 299 416 z "}," ":{"ha":414,"x_min":0,"x_max":0,"o":""},"H":{"ha":1141,"x_min":121,"x_max":1017,"o":"m 1017 0 l 793 0 l 793 433 l 345 433 l 345 0 l 121 0 l 121 1050 l 345 1050 l 345 627 l 793 627 l 793 1050 l 1017 1050 l 1017 0 z "},"i":{"ha":411,"x_min":80,"x_max":334,"o":"m 80 992 q 116 1074 80 1042 q 207 1105 151 1105 q 299 1073 264 1105 q 334 992 334 1041 q 298 910 334 943 q 207 877 262 877 q 116 910 152 877 q 80 992 80 943 m 96 0 l 96 750 l 315 750 l 315 0 l 96 0 z "},"，":{"ha":1389,"x_min":528,"x_max":798,"o":"m 798 180 l 688 -187 l 528 -187 l 606 180 l 798 180 z "},"下":{"ha":1389,"x_min":38,"x_max":1348,"o":"m 876 732 q 1317 405 1096 574 l 1177 234 q 757 574 947 433 l 757 -178 l 537 -178 l 537 882 l 38 882 l 38 1074 l 1348 1074 l 1348 882 l 757 882 l 757 612 l 876 732 z "},"个":{"ha":1389,"x_min":20,"x_max":1371,"o":"m 590 644 l 798 644 l 798 -182 l 590 -182 l 590 644 m 822 1137 l 799 1099 q 1371 583 993 786 q 1242 399 1293 477 q 696 920 868 612 q 146 382 526 627 q 20 561 107 444 q 612 1137 411 797 l 822 1137 z "},"为":{"ha":1389,"x_min":23,"x_max":1305,"o":"m 700 -165 q 650 39 688 -87 q 912 27 816 27 q 1018 42 988 27 q 1058 84 1047 56 q 1081 268 1069 111 q 1105 673 1093 424 l 713 673 q 669 446 701 553 l 791 559 q 1019 355 886 477 l 875 216 q 666 437 753 355 q 184 -191 549 45 q 23 -45 88 -100 q 510 673 454 214 l 52 673 l 52 852 l 294 852 q 132 1040 223 944 l 264 1154 q 456 968 370 1056 l 328 852 l 524 852 l 543 1155 l 751 1155 l 727 852 l 1305 852 l 1273 326 q 1247 20 1257 71 q 1200 -75 1236 -30 q 1110 -140 1164 -119 q 912 -164 1056 -160 q 700 -165 768 -168 z "},"也":{"ha":1389,"x_min":22,"x_max":1375,"o":"m 861 239 q 815 427 838 345 q 949 420 892 420 q 1018 430 1002 420 q 1043 460 1034 439 q 1055 555 1051 481 l 1062 736 l 781 686 l 781 116 l 591 116 l 591 652 l 365 612 l 365 113 q 456 36 365 36 l 1050 36 q 1138 67 1115 36 q 1185 268 1160 99 q 1375 192 1263 235 q 1337 32 1358 106 q 1295 -76 1316 -43 q 1223 -129 1274 -109 q 1099 -149 1173 -149 l 407 -149 q 175 70 175 -149 l 175 579 l 49 557 l 22 730 l 175 758 l 175 996 l 365 996 l 365 791 l 591 832 l 591 1152 l 781 1152 l 781 866 l 1256 951 l 1240 503 q 1203 331 1238 393 q 1103 252 1168 269 q 861 239 1037 235 z "},"了":{"ha":1389,"x_min":71,"x_max":1313,"o":"m 620 625 q 998 896 784 737 l 71 896 l 71 1084 l 1313 1084 l 1313 897 l 834 541 l 834 102 q 768 -90 834 -26 q 572 -154 702 -153 l 324 -155 q 275 52 305 -55 q 492 40 405 40 q 596 73 572 40 q 620 158 620 106 l 620 625 z "},"享":{"ha":1389,"x_min":30,"x_max":1362,"o":"m 41 1045 l 593 1045 q 555 1135 575 1088 l 773 1167 q 819 1045 799 1103 l 1351 1045 l 1351 901 l 41 901 l 41 1045 m 186 509 l 186 843 l 1191 843 l 1191 509 l 186 509 m 1009 640 l 1009 713 l 368 713 l 368 640 l 1009 640 m 30 219 l 648 219 l 648 237 l 920 310 l 127 310 l 127 451 l 1226 451 l 1226 299 l 971 219 l 1362 219 l 1362 73 l 833 73 l 833 7 q 782 -129 833 -84 q 633 -174 731 -174 q 399 -174 535 -174 q 358 -5 387 -101 q 553 -10 460 -10 q 628 9 608 -10 q 648 73 648 28 l 30 73 l 30 219 z "},"今":{"ha":1389,"x_min":12,"x_max":1374,"o":"m 875 1154 l 830 1109 q 1374 683 1036 831 q 1251 519 1314 606 q 705 969 899 691 q 134 507 491 691 q 12 675 62 621 q 612 1154 373 833 l 875 1154 m 663 806 q 859 580 781 677 l 696 473 q 514 705 581 627 l 663 806 m 1190 456 l 1190 292 q 819 -191 1040 79 l 637 -87 q 925 275 784 77 l 176 275 l 176 456 l 1190 456 z "},"付":{"ha":1389,"x_min":20,"x_max":1371,"o":"m 298 1164 l 477 1118 q 382 869 434 989 l 382 -178 l 195 -178 l 195 509 q 81 340 141 421 q 20 587 62 424 q 298 1164 208 873 m 445 904 l 997 904 l 997 1145 l 1187 1145 l 1187 904 l 1371 904 l 1371 725 l 1187 725 l 1187 66 q 1146 -97 1187 -40 q 1030 -161 1106 -153 q 735 -168 954 -169 q 689 33 720 -77 q 906 25 808 25 q 997 127 997 25 l 997 725 l 445 725 l 445 904 m 637 645 q 882 315 770 475 l 720 210 q 496 550 623 379 l 637 645 z "},"以":{"ha":1389,"x_min":50,"x_max":1373,"o":"m 582 1144 q 814 770 663 1029 l 633 664 q 411 1050 526 873 l 582 1144 m 1008 1122 l 1208 1122 l 1193 650 q 1135 304 1185 452 l 1373 2 l 1237 -172 q 1038 117 1135 -14 q 636 -188 892 -75 q 496 -33 586 -123 q 774 141 675 58 q 923 318 874 223 q 985 543 972 413 q 1008 1122 998 673 m 297 1109 l 297 186 q 618 408 411 256 q 661 197 643 265 q 179 -153 216 -106 l 50 3 q 103 151 103 64 l 103 1109 l 297 1109 z "},"们":{"ha":1389,"x_min":22,"x_max":1306,"o":"m 266 1151 l 448 1099 q 362 850 408 969 l 362 -169 l 182 -169 l 182 479 q 68 309 127 389 q 22 559 50 428 q 266 1151 189 825 m 490 1059 l 636 1151 q 800 935 743 1019 l 646 831 q 490 1059 566 956 m 1306 97 q 1258 -91 1306 -26 q 1122 -165 1209 -156 q 845 -176 1035 -174 q 798 16 826 -81 q 946 11 876 11 q 1055 19 1024 11 q 1106 59 1086 28 q 1126 142 1126 90 l 1126 886 l 852 886 l 852 1068 l 1306 1068 l 1306 97 m 488 806 l 669 806 l 669 -169 l 488 -169 l 488 806 z "},"会":{"ha":1389,"x_min":19,"x_max":1370,"o":"m 73 418 l 1318 418 l 1318 248 l 981 248 q 1259 -104 1109 92 l 1093 -204 q 1031 -113 1063 -161 q 385 -146 773 -123 q 243 -166 327 -150 l 161 -2 q 408 248 286 87 l 73 248 l 73 418 m 844 1154 l 806 1107 q 1370 671 981 851 q 1248 511 1298 583 q 1058 625 1146 565 l 1058 532 l 331 532 l 331 633 q 141 513 243 573 q 19 673 102 569 q 610 1154 464 908 l 844 1154 m 694 958 q 423 701 598 832 l 955 701 q 694 958 802 820 m 814 177 l 930 248 l 644 248 q 465 43 574 158 q 906 55 623 43 q 814 177 863 113 z "},"你":{"ha":1389,"x_min":20,"x_max":1367,"o":"m 290 1151 l 469 1093 q 359 792 421 939 l 359 -169 l 178 -169 l 178 431 q 77 271 130 349 l 20 532 q 290 1151 186 804 m 1337 983 l 1337 825 l 1275 588 l 1096 623 l 1147 816 l 700 816 q 547 546 629 661 q 404 660 492 593 q 625 1145 537 859 l 818 1120 q 770 983 794 1048 l 1337 983 m 994 733 l 994 18 q 961 -105 994 -62 q 851 -155 928 -149 q 639 -161 775 -162 q 605 14 628 -81 q 717 9 671 9 q 787 22 768 9 q 806 73 806 35 l 806 733 l 994 733 m 401 112 q 572 562 495 309 l 746 516 q 572 36 673 260 q 401 112 495 74 m 1211 549 q 1367 86 1270 401 l 1181 26 q 1044 504 1111 303 l 1211 549 z "},"做":{"ha":1389,"x_min":26,"x_max":1370,"o":"m 372 911 l 524 911 l 524 1160 l 708 1160 l 708 911 l 846 911 l 846 755 q 989 1162 926 918 l 1166 1128 q 1103 928 1139 1025 l 1369 928 l 1369 767 l 1316 767 q 1187 191 1300 433 q 1370 12 1261 83 l 1289 -181 q 1088 22 1171 -94 q 883 -188 1002 -98 q 785 -31 860 -140 l 563 -31 l 563 -87 l 397 -87 l 397 553 l 524 553 l 524 748 l 372 748 l 372 911 m 1089 390 q 1151 767 1145 554 l 1034 767 q 1026 752 1030 760 q 1089 390 1035 547 m 904 544 q 868 493 886 518 q 788 650 844 558 q 842 748 817 694 l 708 748 l 708 553 l 838 553 l 838 30 q 992 194 928 99 q 904 544 925 350 m 673 125 l 673 397 l 563 397 l 563 125 l 673 125 m 237 1159 l 406 1120 q 321 846 368 979 l 321 -182 l 159 -182 l 159 461 q 73 303 118 380 l 26 543 q 237 1159 172 847 z "},"决":{"ha":1389,"x_min":15,"x_max":1354,"o":"m 385 508 l 647 508 q 661 768 655 625 l 423 768 l 423 947 l 667 947 l 670 1152 l 856 1152 q 852 947 855 1048 l 1245 947 l 1245 508 l 1354 508 l 1354 329 l 885 329 q 1337 -3 1021 77 q 1230 -185 1280 -94 q 753 231 906 -77 q 374 -192 669 4 q 251 -20 323 -106 q 603 329 511 101 l 385 329 l 385 508 m 1066 768 l 846 768 q 833 508 841 635 l 1066 508 l 1066 768 m 148 1091 q 385 832 277 962 l 233 702 q 15 975 123 851 l 148 1091 m 202 558 q 366 477 270 522 l 175 -111 q 15 -17 102 -66 q 202 558 110 239 z "},"出":{"ha":1389,"x_min":92,"x_max":1295,"o":"m 1057 691 l 1057 1031 l 1246 1031 l 1246 512 l 795 512 l 795 62 l 1105 62 l 1105 394 l 1295 394 l 1295 -181 l 1105 -181 l 1105 -117 l 92 -117 l 92 394 l 282 394 l 282 62 l 591 62 l 591 512 l 141 512 l 141 1031 l 331 1031 l 331 691 l 591 691 l 591 1149 l 795 1149 l 795 691 l 1057 691 z "},"分":{"ha":1389,"x_min":14,"x_max":1378,"o":"m 1378 657 q 1248 484 1321 587 q 1151 565 1198 523 q 1122 41 1133 132 q 1055 -98 1112 -49 q 896 -147 998 -147 q 632 -143 756 -147 q 604 62 620 -31 q 859 47 780 47 q 918 89 905 47 q 939 429 930 130 l 604 429 q 549 137 592 239 q 414 -47 506 35 q 183 -189 322 -129 q 42 -17 99 -77 q 241 90 163 31 q 354 215 319 149 q 399 429 388 281 l 206 429 l 206 537 q 137 488 172 511 q 14 641 75 576 q 476 1154 320 857 l 658 1075 q 302 616 516 808 l 1095 616 q 751 1064 887 817 l 920 1151 q 1378 657 1093 851 z "},"力":{"ha":1389,"x_min":8,"x_max":1299,"o":"m 454 1152 l 665 1152 l 656 882 l 1299 882 l 1287 478 q 1272 129 1280 266 q 1191 -81 1263 -8 q 1001 -157 1119 -154 q 700 -158 882 -159 q 659 54 681 -40 q 909 43 766 43 q 1013 70 977 43 q 1058 135 1048 96 q 1077 329 1069 174 q 1090 703 1086 484 l 646 703 q 167 -193 633 131 q 8 -18 96 -106 q 441 703 426 230 l 83 703 l 83 882 l 450 882 q 454 1152 455 1008 z "},"努":{"ha":1389,"x_min":14,"x_max":1373,"o":"m 521 473 l 713 473 q 644 576 681 527 l 593 492 q 448 568 518 532 q 103 389 311 453 q 14 551 87 424 q 283 648 172 585 q 88 734 182 696 q 168 892 132 812 l 43 892 l 43 1033 l 229 1033 q 274 1160 253 1096 l 445 1144 q 400 1033 423 1088 l 671 1033 l 671 904 q 562 688 634 784 l 682 641 l 658 600 q 854 686 766 636 q 705 871 772 770 l 819 947 l 711 947 l 711 1099 l 1303 1099 l 1303 947 q 1137 684 1238 798 q 1373 588 1244 624 q 1279 413 1320 496 q 1000 562 1126 471 q 741 427 886 479 q 714 471 728 449 q 698 368 707 416 l 1257 368 q 1231 26 1244 89 q 1176 -81 1217 -37 q 1069 -144 1134 -125 q 850 -162 1005 -162 q 722 -159 781 -162 q 678 36 704 -56 q 891 24 798 24 q 982 41 948 24 q 1026 92 1016 58 q 1039 211 1036 126 l 655 211 q 148 -189 548 -75 q 22 -21 87 -104 q 441 211 340 59 l 123 211 l 123 368 l 503 368 q 521 473 515 416 m 992 785 q 1124 947 1073 857 l 843 947 q 992 785 909 856 m 289 790 l 409 745 q 502 892 469 810 l 338 892 q 289 790 314 840 z "},"同":{"ha":1389,"x_min":83,"x_max":1306,"o":"m 83 1102 l 1306 1102 l 1306 63 q 1254 -114 1306 -55 q 1108 -174 1201 -172 q 884 -176 1016 -176 q 842 13 864 -67 q 998 4 927 4 q 1074 10 1052 4 q 1111 36 1097 16 q 1124 90 1124 56 l 1124 932 l 264 932 l 264 -173 l 83 -173 l 83 1102 m 1058 668 l 331 668 l 331 823 l 1058 823 l 1058 668 m 377 562 l 1006 562 l 1006 87 l 553 87 l 553 1 l 377 1 l 377 562 m 830 239 l 830 410 l 553 410 l 553 239 l 830 239 z "},"吧":{"ha":1389,"x_min":73,"x_max":1371,"o":"m 791 25 l 1042 25 q 1145 80 1118 25 q 1190 298 1173 134 q 1371 215 1284 249 q 1266 -92 1336 -29 q 1082 -154 1197 -154 l 739 -154 q 537 48 537 -154 l 537 1097 l 1284 1097 l 1284 413 l 711 413 l 711 100 q 791 25 711 25 m 711 928 l 711 581 l 833 581 l 833 928 l 711 928 m 1111 581 l 1111 928 l 989 928 l 989 581 l 1111 581 m 73 1040 l 467 1040 l 467 3 l 313 3 l 313 90 l 239 90 l 239 -32 l 73 -32 l 73 1040 m 313 866 l 239 866 l 239 264 l 313 264 l 313 866 z "},"喜":{"ha":1389,"x_min":27,"x_max":1367,"o":"m 54 1088 l 600 1088 l 600 1159 l 789 1159 l 789 1088 l 1335 1088 l 1335 964 l 789 964 l 789 901 l 1256 901 l 1256 786 l 127 786 l 127 901 l 600 901 l 600 964 l 54 964 l 54 1088 m 1367 215 l 27 215 l 27 340 l 336 340 q 296 416 316 380 l 386 433 l 175 433 l 175 725 l 1214 725 l 1214 433 l 1006 433 l 1100 414 l 1034 340 l 1367 340 l 1367 215 m 358 549 l 1031 549 l 1031 610 l 358 610 l 358 549 m 557 340 l 818 340 l 882 433 l 502 433 q 557 340 529 389 m 1047 -188 l 1047 -140 l 342 -140 l 342 -188 l 159 -188 l 159 157 l 1230 157 l 1230 -188 l 1047 -188 m 1047 41 l 342 41 l 342 -25 l 1047 -25 l 1047 41 z "},"国":{"ha":1389,"x_min":77,"x_max":1312,"o":"m 77 -173 l 77 1102 l 1312 1102 l 1312 -172 l 1118 -172 l 1118 -124 l 271 -124 l 271 -173 l 77 -173 m 1118 935 l 271 935 l 271 43 l 1118 43 l 1118 935 m 1042 444 l 941 444 q 1054 340 997 395 l 982 275 l 1074 275 l 1074 116 l 308 116 l 308 275 l 585 275 l 585 444 l 343 444 l 343 603 l 585 603 l 585 699 l 321 699 l 321 858 l 1061 858 l 1061 699 l 766 699 l 766 603 l 1042 603 l 1042 444 m 804 376 l 883 444 l 766 444 l 766 275 l 899 275 q 804 376 846 336 z "},"在":{"ha":1389,"x_min":19,"x_max":1354,"o":"m 57 1011 l 435 1011 q 487 1164 465 1086 l 692 1149 q 650 1011 673 1079 l 1351 1011 l 1351 831 l 576 831 q 381 510 496 661 l 381 -181 l 199 -181 l 199 304 q 95 208 149 255 q 19 418 56 332 q 351 831 224 603 l 57 831 l 57 1011 m 430 62 l 799 62 l 799 366 l 503 366 l 503 545 l 799 545 l 799 789 l 993 789 l 993 545 l 1293 545 l 1293 366 l 993 366 l 993 62 l 1354 62 l 1354 -117 l 430 -117 l 430 62 z "},"天":{"ha":1389,"x_min":22,"x_max":1364,"o":"m 37 644 l 570 644 q 592 893 587 754 l 111 893 l 111 1078 l 1283 1078 l 1283 893 l 790 893 q 775 644 785 774 l 1352 644 l 1352 456 l 833 456 q 1364 2 983 114 q 1207 -191 1309 -60 q 686 337 849 -40 q 175 -184 566 27 q 22 -10 122 -116 q 528 456 456 186 l 37 456 l 37 644 z "},"定":{"ha":1389,"x_min":20,"x_max":1370,"o":"m 560 1113 l 768 1162 q 826 1006 795 1091 l 1316 1006 l 1316 739 l 1128 739 l 1128 840 l 266 840 l 266 739 l 79 739 l 79 1006 l 602 1006 l 560 1113 m 1265 378 l 1265 211 l 812 211 l 812 27 q 1370 32 1034 22 q 1312 -151 1332 -81 q 610 -137 829 -151 q 301 47 391 -122 q 133 -186 232 -92 q 20 -29 72 -96 q 237 460 190 143 l 419 439 q 375 243 401 334 q 618 38 444 65 l 618 524 l 57 524 l 57 691 l 1336 691 l 1336 524 l 812 524 l 812 378 l 1265 378 z "},"小":{"ha":1389,"x_min":24,"x_max":1379,"o":"m 605 1144 l 817 1144 l 817 117 q 775 -80 817 -16 q 668 -155 733 -143 q 369 -166 602 -166 q 319 48 349 -51 q 509 36 427 36 q 605 149 605 36 l 605 1144 m 1130 851 q 1379 226 1259 554 l 1165 143 q 939 787 1054 494 l 1130 851 m 232 850 l 435 801 q 225 135 336 437 l 24 211 q 232 850 144 520 z "},"岁":{"ha":1389,"x_min":45,"x_max":1248,"o":"m 1222 592 l 1222 436 q 189 -192 954 -24 q 90 -16 148 -105 q 576 131 374 39 l 387 284 l 530 397 q 762 232 628 326 q 964 424 888 317 l 444 424 q 176 222 324 317 q 45 361 133 275 q 471 703 316 515 l 141 703 l 141 1083 l 323 1083 l 323 863 l 594 863 l 594 1149 l 795 1149 l 795 863 l 1066 863 l 1066 1083 l 1248 1083 l 1248 703 l 697 703 q 610 592 656 646 l 1222 592 z "},"希":{"ha":1389,"x_min":11,"x_max":1354,"o":"m 38 692 l 446 692 q 507 795 480 743 q 205 728 366 761 q 136 869 165 813 q 467 939 311 901 l 174 1023 l 241 1159 q 753 1017 480 1099 q 1138 1167 970 1085 q 1225 1033 1180 1099 q 1002 940 1129 985 l 1240 863 l 1160 709 q 735 855 960 783 q 560 808 652 831 l 699 790 q 642 692 671 740 l 1354 692 l 1354 530 l 830 530 l 830 408 l 1261 408 l 1261 92 q 1250 16 1261 49 q 1214 -39 1238 -16 q 1156 -73 1191 -61 q 1059 -86 1120 -85 q 920 -86 997 -87 q 887 96 902 29 q 1009 85 962 85 q 1082 162 1082 85 l 1082 250 l 830 250 l 830 -184 l 640 -184 l 640 250 l 391 250 l 391 -86 l 212 -86 l 212 217 q 127 155 170 185 q 11 299 81 219 q 311 530 186 404 l 38 530 l 38 692 m 421 408 l 640 408 l 640 530 l 527 530 q 421 408 477 466 z "},"年":{"ha":1389,"x_min":30,"x_max":1355,"o":"m 1263 664 l 1263 492 l 879 492 l 879 279 l 1355 279 l 1355 106 l 879 106 l 879 -180 l 681 -180 l 681 106 l 38 106 l 38 279 l 228 279 l 228 610 q 152 535 191 572 q 30 709 100 612 q 347 1162 236 878 l 557 1131 q 507 1015 534 1072 l 1314 1015 l 1314 843 l 879 843 l 879 664 l 1263 664 m 276 664 l 681 664 l 681 843 l 410 843 q 276 664 349 749 m 418 279 l 681 279 l 681 492 l 418 492 l 418 279 z "},"念":{"ha":1389,"x_min":1,"x_max":1381,"o":"m 827 1151 l 802 1109 q 1373 798 1035 895 q 1263 615 1317 718 q 693 968 917 767 q 126 606 439 730 q 15 781 73 703 q 610 1151 380 890 l 827 1151 m 549 801 l 742 855 q 818 663 776 783 l 746 645 l 1114 645 l 1114 497 l 956 273 l 817 361 l 920 493 l 236 493 l 236 645 l 608 645 q 549 801 579 732 m 932 186 q 1119 105 1013 149 q 1067 -45 1090 6 q 869 -163 1019 -163 l 547 -163 q 343 37 343 -163 l 343 351 l 522 351 l 522 85 q 606 -1 522 -1 l 793 -1 q 907 66 894 -1 q 932 186 921 123 m 122 328 l 290 275 q 171 -83 218 28 l 1 -18 q 122 328 56 102 m 1188 336 q 1381 58 1289 201 l 1227 -44 q 1040 249 1137 116 l 1188 336 m 655 432 q 890 205 780 318 l 751 82 q 530 323 642 214 l 655 432 z "},"感":{"ha":1389,"x_min":16,"x_max":1375,"o":"m 137 1034 l 818 1034 q 814 1156 815 1093 l 985 1156 q 989 1034 986 1093 l 1086 1034 q 1043 1112 1064 1077 l 1195 1154 q 1262 1034 1237 1081 l 1351 1034 l 1351 880 l 1001 880 q 1037 637 1014 739 q 1145 828 1096 725 l 1284 747 q 1098 458 1197 584 q 1161 397 1130 397 q 1200 445 1187 397 q 1229 570 1213 494 q 1375 494 1303 524 q 1306 288 1339 341 q 1219 217 1274 235 q 1370 -5 1299 112 l 1218 -97 q 1062 158 1143 40 l 1153 210 q 975 320 1050 214 q 879 235 928 274 q 796 331 833 292 l 796 304 l 718 304 q 854 136 789 221 l 719 41 q 570 245 662 130 l 663 304 l 350 304 l 350 640 l 796 640 l 796 374 q 901 469 851 418 q 827 880 850 611 l 307 880 l 307 709 q 211 248 307 423 l 331 204 q 182 -125 267 45 l 24 -51 q 137 195 95 86 q 16 300 73 258 q 137 726 137 439 l 137 1034 m 647 427 l 647 517 l 499 517 l 499 427 l 647 427 m 799 699 l 346 699 l 346 820 l 799 820 l 799 699 m 921 172 q 1095 85 1006 119 q 980 -124 1038 -89 q 834 -159 923 -159 l 548 -159 q 346 12 346 -159 l 346 230 l 525 230 l 525 58 q 600 -6 525 -6 l 779 -6 q 877 24 848 -6 q 921 172 905 55 z "},"成":{"ha":1389,"x_min":19,"x_max":1374,"o":"m 349 2 q 316 200 335 117 q 418 188 380 188 q 500 260 490 188 q 510 444 510 332 l 312 444 q 179 -186 310 23 q 19 -54 104 -116 q 133 471 132 130 l 133 931 l 770 931 l 764 1155 l 956 1155 l 958 931 l 1143 931 q 1028 1072 1107 979 l 1171 1149 q 1306 988 1218 1098 l 1202 931 l 1351 931 l 1351 768 l 962 768 q 991 403 968 557 q 1150 702 1080 541 l 1317 625 q 1048 159 1198 361 q 1139 27 1099 27 q 1165 47 1155 27 q 1187 145 1175 66 q 1200 280 1200 223 q 1374 197 1261 245 q 1340 5 1370 124 q 1261 -148 1310 -115 q 1163 -181 1213 -181 q 918 3 1015 -181 q 712 -186 821 -102 q 571 -43 647 -106 q 844 207 721 65 q 777 768 794 410 l 312 768 l 312 608 l 699 608 q 690 372 699 588 q 654 106 682 156 q 580 25 625 57 q 349 2 535 -6 z "},"我":{"ha":1389,"x_min":16,"x_max":1375,"o":"m 50 201 l 16 394 q 264 418 142 405 l 264 592 l 18 592 l 18 766 l 264 766 l 264 899 l 73 885 q 49 1059 68 947 q 632 1116 353 1075 l 674 946 q 465 919 576 931 l 465 766 l 728 766 l 711 1151 l 903 1151 q 916 766 907 954 l 1362 766 l 1362 592 l 924 592 q 954 330 934 437 q 1168 577 1073 440 l 1313 459 q 1008 146 1179 288 q 1131 16 1063 16 q 1150 21 1139 16 q 1178 95 1160 26 q 1210 262 1196 164 q 1375 170 1305 200 q 1288 -107 1337 -35 q 1152 -180 1239 -180 q 853 28 956 -180 q 609 -120 739 -51 q 498 39 567 -44 q 793 200 658 106 q 739 592 755 352 l 465 592 l 465 442 q 696 474 582 457 q 692 365 692 414 q 694 292 692 326 l 465 264 l 465 -6 q 432 -120 465 -81 q 311 -166 399 -160 q 104 -173 222 -173 q 53 6 80 -54 q 187 1 119 1 l 214 0 q 252 17 239 0 q 264 71 264 35 l 264 235 l 50 201 m 1062 1118 q 1299 912 1219 991 q 1172 790 1221 840 q 947 1006 1073 901 l 1062 1118 z "},"接":{"ha":1389,"x_min":20,"x_max":1367,"o":"m 1325 881 l 1119 881 l 1245 831 l 1160 717 l 1367 717 l 1367 565 l 754 565 l 901 523 l 863 455 l 1354 455 l 1354 303 l 1217 303 q 1085 86 1173 180 l 1348 -22 l 1257 -182 q 945 -28 1088 -96 q 486 -186 766 -141 q 400 -25 450 -111 q 751 60 609 -1 q 506 155 613 119 q 591 303 551 227 l 450 303 l 450 354 q 353 338 404 347 l 353 1 q 318 -121 353 -78 q 217 -169 284 -163 q 61 -177 151 -175 q 20 2 49 -89 q 109 -1 71 -1 q 163 13 151 -1 q 176 63 176 26 l 176 304 l 42 276 l 20 470 q 176 490 85 477 l 176 726 l 42 726 l 42 900 l 176 900 l 176 1151 l 353 1151 l 353 900 l 468 900 l 468 726 l 353 726 l 353 517 l 460 535 q 458 455 458 492 l 663 455 q 707 565 686 509 l 452 565 l 452 717 l 644 717 q 575 831 604 787 l 688 881 l 499 881 l 499 1033 l 800 1033 q 760 1128 781 1083 l 963 1162 q 1010 1033 987 1105 l 1325 1033 l 1325 881 m 853 753 l 768 717 l 953 717 q 1053 881 1020 821 l 765 881 q 853 753 804 829 m 732 224 l 911 155 q 1022 303 986 219 l 777 303 l 732 224 z "},"日":{"ha":1389,"x_min":163,"x_max":1234,"o":"m 163 -169 l 163 1079 l 1234 1079 l 1234 -169 l 1025 -169 l 1025 -74 l 372 -74 l 372 -169 l 163 -169 m 1025 886 l 372 886 l 372 602 l 1025 602 l 1025 886 m 372 119 l 1025 119 l 1025 414 l 372 414 l 372 119 z "},"时":{"ha":1389,"x_min":85,"x_max":1369,"o":"m 659 920 l 1061 920 l 1061 1148 l 1255 1148 l 1255 920 l 1369 920 l 1369 740 l 1255 740 l 1255 68 q 1204 -104 1255 -45 q 1063 -165 1153 -162 q 796 -169 973 -169 q 750 29 774 -45 q 962 24 943 24 q 1061 127 1061 24 l 1061 740 l 659 740 l 659 920 m 85 -108 l 85 1063 l 620 1063 l 620 -100 l 441 -100 l 441 -6 l 264 -6 l 264 -108 l 85 -108 m 441 884 l 264 884 l 264 615 l 441 615 l 441 884 m 264 173 l 441 173 l 441 441 l 264 441 l 264 173 m 779 667 q 1023 338 871 551 l 859 231 q 637 573 735 436 l 779 667 z "},"是":{"ha":1389,"x_min":23,"x_max":1369,"o":"m 182 1114 l 1208 1114 l 1208 547 l 182 547 l 182 1114 m 1020 964 l 370 964 l 370 890 l 1020 890 l 1020 964 m 1020 698 l 1020 771 l 370 771 l 370 698 l 1020 698 m 178 -188 q 23 -77 107 -134 q 256 326 175 68 l 26 326 l 26 482 l 1366 482 l 1366 326 l 800 326 l 800 243 l 1261 243 l 1261 96 l 800 96 l 800 9 q 1019 7 889 7 q 1369 10 1166 7 q 1316 -150 1335 -78 q 968 -149 1217 -152 l 770 -146 q 317 1 458 -146 q 178 -188 255 -111 m 617 24 l 617 326 l 259 326 l 430 262 q 388 148 410 202 q 617 24 476 55 z "},"望":{"ha":1389,"x_min":22,"x_max":1364,"o":"m 522 744 q 524 577 521 659 q 182 458 267 500 l 87 562 q 123 679 123 602 l 123 836 l 41 836 l 41 991 l 211 991 q 157 1112 187 1050 l 328 1160 q 396 1014 359 1097 l 313 991 l 541 991 l 541 836 l 297 836 l 297 672 q 522 744 397 701 m 1289 1110 l 1289 614 q 1253 508 1289 548 q 1107 465 1217 469 q 913 462 998 460 q 872 583 897 522 q 1055 576 971 576 q 1107 634 1107 576 l 1107 648 l 762 648 q 697 439 761 541 q 511 509 604 479 q 586 819 586 610 l 586 1110 l 1289 1110 m 1107 976 l 768 976 l 768 908 l 1107 908 l 1107 976 m 767 744 l 1107 744 l 1107 812 l 768 812 l 767 744 m 22 1 l 600 1 l 600 78 l 141 78 l 141 218 l 600 218 l 600 295 l 77 295 l 77 437 l 1310 437 l 1310 295 l 791 295 l 791 218 l 1255 218 l 1255 78 l 791 78 l 791 1 l 1364 1 l 1364 -142 l 22 -142 l 22 1 z "},"来":{"ha":1389,"x_min":23,"x_max":1360,"o":"m 111 1004 l 593 1004 l 593 1154 l 789 1154 l 789 1004 l 1278 1004 l 1278 828 l 1057 828 l 1192 728 q 1025 546 1102 617 l 1348 546 l 1348 371 l 903 371 q 1360 75 1091 177 q 1240 -96 1299 -5 q 789 274 952 61 l 789 -176 l 593 -176 l 593 273 q 142 -104 425 55 q 23 58 80 -14 q 472 371 288 172 l 46 371 l 46 546 l 349 546 q 197 733 296 620 l 323 828 l 111 828 l 111 1004 m 1052 828 l 789 828 l 789 546 l 1006 546 l 886 648 q 1052 828 970 726 m 498 644 l 366 546 l 593 546 l 593 828 l 332 828 q 498 644 412 747 z "},"欢":{"ha":1389,"x_min":18,"x_max":1374,"o":"m 1341 969 l 1341 806 l 1278 553 l 1103 588 l 1164 802 l 794 802 q 682 512 741 645 q 521 603 640 542 q 711 1162 643 866 l 891 1135 q 846 969 869 1049 l 1341 969 m 171 786 l 317 557 q 365 866 357 705 l 41 866 l 41 1042 l 544 1042 q 439 361 543 639 l 579 131 l 420 35 q 348 167 389 93 q 109 -136 254 3 q 18 59 62 -29 q 239 352 162 203 q 23 707 147 507 l 171 786 m 834 720 l 1009 720 q 996 514 1009 612 q 1374 12 1115 119 q 1263 -169 1321 -66 q 932 250 1038 -39 q 579 -195 826 -25 q 426 -32 529 -130 q 736 267 639 87 q 834 720 834 448 z "},"物":{"ha":1389,"x_min":19,"x_max":1318,"o":"m 427 -184 l 256 -184 l 256 234 q 45 192 145 214 l 20 389 q 256 417 130 399 l 256 688 l 168 688 q 129 504 151 593 q 19 565 65 545 q 83 1038 68 774 l 208 1026 q 193 863 202 943 l 256 863 l 256 1148 l 427 1148 l 427 863 l 526 863 l 526 809 q 673 1159 620 988 q 854 1124 770 1141 q 783 946 819 1028 l 1318 946 q 1308 437 1316 711 l 1296 87 q 1266 -44 1292 10 q 1186 -123 1240 -99 q 901 -140 1132 -148 q 854 47 880 -29 q 627 -168 759 -72 q 481 -24 541 -77 q 960 767 910 252 l 893 767 q 604 210 844 418 q 530 279 564 248 l 427 263 l 427 -184 m 1150 767 l 1090 767 q 861 55 1084 342 q 1019 48 945 48 q 1126 140 1112 48 q 1150 767 1140 232 m 572 574 q 484 688 517 652 l 427 688 l 427 444 q 549 465 486 453 q 546 401 547 435 q 764 767 711 555 l 697 767 q 572 574 635 651 z "},"生":{"ha":1389,"x_min":27,"x_max":1350,"o":"m 76 63 l 647 63 l 647 294 l 245 294 l 245 477 l 647 477 l 647 702 l 319 702 q 119 375 230 527 q 27 608 77 488 q 264 1103 167 794 l 467 1053 q 403 885 437 967 l 647 885 l 647 1154 l 850 1154 l 850 885 l 1301 885 l 1301 702 l 850 702 l 850 477 l 1248 477 l 1248 294 l 850 294 l 850 63 l 1350 63 l 1350 -125 l 76 -125 l 76 63 z "},"的":{"ha":1389,"x_min":73,"x_max":1325,"o":"m 271 1151 l 473 1120 l 412 935 l 643 935 l 643 671 q 852 1154 752 854 l 1039 1105 q 975 928 1009 1015 l 1325 928 l 1310 148 q 1289 -29 1306 22 q 1234 -111 1271 -79 q 1129 -155 1196 -143 q 838 -166 1063 -166 q 787 39 818 -47 q 1000 31 887 31 q 1057 38 1033 31 q 1096 61 1080 45 q 1116 95 1111 76 q 1125 262 1122 114 l 1131 539 q 1134 749 1134 669 l 898 749 q 803 565 853 654 q 643 648 739 607 l 643 -159 l 454 -159 l 454 -62 l 262 -62 l 262 -168 l 73 -168 l 73 935 l 216 935 q 271 1151 256 1068 m 454 758 l 262 758 l 262 526 l 454 526 l 454 758 m 262 116 l 454 116 l 454 348 l 262 348 l 262 116 m 856 587 q 1066 303 954 470 l 895 189 q 699 478 792 359 l 856 587 z "},"直":{"ha":1389,"x_min":24,"x_max":1366,"o":"m 24 17 l 167 17 l 167 831 l 593 831 l 593 920 l 53 920 l 53 1068 l 593 1068 l 593 1159 l 785 1159 l 785 1068 l 1340 1068 l 1340 920 l 785 920 l 785 831 l 1226 831 l 1226 17 l 1366 17 l 1366 -131 l 24 -131 l 24 17 m 1044 687 l 350 687 l 350 607 l 1044 607 l 1044 687 m 350 17 l 1044 17 l 1044 97 l 350 97 l 350 17 m 350 214 l 1044 214 l 1044 294 l 350 294 l 350 214 m 350 410 l 1044 410 l 1044 490 l 350 490 l 350 410 z "},"禾":{"ha":1389,"x_min":5,"x_max":1381,"o":"m 57 695 l 595 695 l 595 903 l 149 890 q 104 1069 134 961 q 1230 1107 798 1074 l 1290 932 l 792 910 l 792 695 l 1335 695 l 1335 513 l 896 513 q 1381 115 1088 264 q 1225 -56 1283 16 q 792 387 968 116 l 792 -178 l 595 -178 l 595 386 q 146 -68 431 140 q 5 97 79 16 q 488 513 306 272 l 57 513 l 57 695 z "},"第":{"ha":1389,"x_min":5,"x_max":1354,"o":"m 241 1160 l 427 1160 q 380 1067 405 1112 l 718 1067 l 718 943 q 846 1160 798 1043 l 1034 1160 q 995 1067 1015 1112 l 1354 1067 l 1354 938 l 1124 938 q 1206 862 1167 901 l 1124 794 l 1270 794 l 1270 421 l 798 421 l 798 340 l 1333 340 q 1292 -28 1326 12 q 1219 -95 1259 -68 q 897 -119 1180 -121 q 850 48 879 -39 q 1036 40 1031 40 q 1107 56 1082 40 q 1138 96 1133 71 q 1149 193 1143 121 l 798 193 l 798 -180 l 612 -180 l 612 155 q 121 -172 438 -41 q 19 -7 81 -105 q 418 193 268 73 l 98 193 l 163 568 l 612 568 l 612 649 l 146 649 l 146 766 q 114 737 130 751 q 5 862 62 802 q 241 1160 163 995 m 509 938 q 604 852 557 897 l 532 794 l 812 794 q 674 889 751 840 q 715 938 695 913 l 509 938 m 355 895 l 412 938 l 298 938 q 176 794 243 860 l 456 794 q 355 895 412 840 m 821 794 l 1072 794 q 966 897 1026 843 l 1014 938 l 926 938 q 821 794 879 861 m 1086 568 l 1086 649 l 798 649 l 798 568 l 1086 568 m 302 340 l 612 340 l 612 421 l 317 421 l 302 340 z "},"纪":{"ha":1389,"x_min":16,"x_max":1371,"o":"m 305 375 q 543 404 418 386 q 528 241 530 300 q 106 181 174 207 l 39 344 q 256 594 119 386 q 71 572 127 589 l 16 730 q 263 1164 90 785 l 444 1098 q 231 741 305 859 q 351 745 278 741 q 441 905 396 822 l 601 829 q 305 375 422 534 m 1181 309 q 1371 246 1308 264 q 1323 0 1341 65 q 1251 -100 1305 -66 q 1105 -135 1196 -135 l 784 -135 q 593 85 594 -135 l 593 652 l 1088 652 l 1088 907 l 570 907 l 570 1083 l 1274 1083 l 1274 475 l 779 475 l 779 124 q 867 36 779 36 l 1050 36 q 1144 78 1121 36 q 1181 309 1167 119 m 53 -121 l 20 59 q 530 123 264 85 q 526 -52 525 24 q 53 -121 300 -82 z "},"谢":{"ha":1389,"x_min":22,"x_max":1370,"o":"m 555 1166 l 753 1145 q 693 1018 724 1082 l 865 1018 l 865 585 l 994 631 q 1105 309 1069 446 l 956 257 q 865 553 916 399 l 865 16 q 829 -122 865 -76 q 727 -170 793 -168 q 562 -171 661 -171 q 530 -9 549 -90 q 647 -18 605 -18 q 703 43 703 -18 l 703 163 q 406 -83 563 12 q 357 -19 385 -52 q 167 -166 241 -99 l 69 -48 q 113 66 113 -1 l 113 576 l 22 576 l 22 752 l 277 752 l 277 136 q 388 208 297 151 q 397 104 392 153 q 608 258 508 170 l 327 258 l 327 399 l 388 399 l 388 1018 l 515 1018 q 555 1166 536 1086 m 703 877 l 551 877 l 551 795 l 703 795 l 703 877 m 551 597 l 703 597 l 703 679 l 551 679 l 551 597 m 551 399 l 703 399 l 703 481 l 551 481 l 551 399 m 897 900 l 1111 900 l 1111 1143 l 1278 1143 l 1278 900 l 1370 900 l 1370 725 l 1278 725 l 1278 48 q 1239 -105 1278 -53 q 1130 -162 1200 -158 q 951 -168 1059 -167 q 917 7 940 -77 q 1042 3 978 3 q 1111 78 1111 3 l 1111 725 l 897 725 l 897 900 m 193 1141 q 354 908 283 1021 q 199 813 279 863 q 50 1056 129 945 l 193 1141 z "},"起":{"ha":1389,"x_min":19,"x_max":1370,"o":"m 712 530 l 543 530 l 543 379 l 694 379 l 694 212 l 543 212 l 543 41 q 824 33 609 33 q 1370 40 1029 33 q 1305 -153 1335 -48 q 547 -140 763 -153 q 237 28 331 -127 q 161 -185 208 -94 q 19 -32 111 -130 q 106 475 107 144 l 279 475 q 271 253 279 357 q 365 117 304 168 l 365 530 l 23 530 l 23 696 l 288 696 l 288 821 l 69 821 l 69 988 l 288 988 l 288 1162 l 473 1162 l 473 988 l 674 988 l 674 821 l 473 821 l 473 696 l 712 696 l 712 530 m 1165 509 q 1351 436 1278 460 q 1308 226 1332 275 q 1100 108 1268 108 l 939 108 q 754 303 754 108 l 754 725 l 1099 725 l 1099 920 l 727 920 l 727 1086 l 1283 1086 l 1283 559 l 939 559 l 939 336 q 1006 273 939 273 l 1069 273 q 1141 304 1124 273 q 1165 509 1158 334 z "},"跟":{"ha":1389,"x_min":23,"x_max":1369,"o":"m 1369 14 l 1271 -159 q 966 71 1080 -94 q 962 -86 960 -31 q 631 -181 764 -125 l 556 -36 q 583 97 583 7 l 583 1101 l 1286 1101 l 1286 394 l 1231 394 l 1344 256 l 1141 127 q 1369 14 1233 43 m 1120 932 l 751 932 l 751 823 l 1120 823 l 1120 932 m 1120 561 l 1120 671 l 751 671 l 751 561 l 1120 561 m 831 394 l 751 394 l 751 41 q 951 91 824 56 q 831 394 871 216 m 1051 241 q 1229 394 1159 327 l 989 394 q 1051 241 1013 308 m 79 1094 l 524 1094 l 524 611 l 414 611 l 414 451 l 524 451 l 524 294 l 414 294 l 414 95 l 529 117 q 532 -64 528 5 q 52 -165 296 -109 l 23 25 l 64 32 l 64 524 l 189 524 l 189 54 l 259 66 l 259 611 l 79 611 l 79 1094 m 233 763 l 369 763 l 369 920 l 233 920 l 233 763 z "},"送":{"ha":1389,"x_min":16,"x_max":1370,"o":"m 1343 422 l 937 422 q 932 401 935 410 q 1302 212 1131 307 l 1185 41 q 857 246 1013 159 q 583 26 766 120 q 425 168 505 98 q 734 422 678 272 l 395 422 l 395 587 l 754 587 q 757 729 757 649 l 445 729 l 445 893 l 671 893 q 517 1060 590 985 l 652 1158 q 838 988 728 1097 q 712 893 768 939 l 911 893 q 1062 1159 983 1007 q 1245 1068 1202 1088 q 1112 893 1210 1025 l 1305 893 l 1305 729 l 952 729 q 949 587 952 650 l 1343 587 l 1343 422 m 608 21 q 1370 26 802 13 q 1309 -151 1331 -86 q 566 -147 873 -153 q 258 -22 357 -147 q 94 -188 142 -132 l 16 26 q 152 139 85 85 l 152 513 l 28 513 l 28 692 l 339 692 l 339 142 q 608 21 439 21 m 217 1159 q 414 899 319 1034 q 247 789 338 850 q 62 1060 165 918 l 217 1159 z "},"阳":{"ha":1389,"x_min":72,"x_max":1308,"o":"m 445 587 q 566 220 566 448 q 500 47 566 102 q 286 -7 435 -7 q 254 193 277 104 q 308 189 285 189 q 387 254 387 189 q 266 566 387 427 q 366 942 319 744 l 248 942 l 248 -184 l 72 -184 l 72 1099 l 549 1099 l 549 969 q 445 587 502 786 m 1308 -178 l 1124 -178 l 1124 -89 l 785 -89 l 785 -178 l 602 -178 l 602 1078 l 1308 1078 l 1308 -178 m 785 581 l 1124 581 l 1124 907 l 785 907 l 785 581 m 785 82 l 1124 82 l 1124 410 l 785 410 l 785 82 z "},"一":{"ha":1389,"x_min":41,"x_max":1351,"o":"m 41 589 l 1351 589 l 1351 389 l 41 389 l 41 589 z "},"悦":{"ha":1389,"x_min":5,"x_max":1375,"o":"m 1055 1155 q 1246 1084 1108 1135 q 1124 911 1176 984 l 1263 911 l 1263 332 l 1107 332 l 1107 64 q 1143 6 1107 6 l 1160 6 q 1196 52 1187 6 q 1213 195 1206 106 q 1375 127 1278 165 q 1340 -52 1356 -2 q 1152 -169 1306 -169 l 1096 -169 q 925 1 925 -169 l 925 332 l 837 332 q 522 -193 818 -39 q 391 -47 476 -130 q 655 332 639 60 l 519 332 l 519 650 l 423 599 q 353 752 384 686 l 353 -186 l 174 -186 l 174 1148 l 353 1148 l 353 870 l 407 900 q 519 718 465 808 l 519 911 l 662 911 q 541 1078 618 972 l 685 1156 q 852 953 764 1065 l 776 911 l 926 911 q 1055 1155 990 1021 m 1084 488 l 1084 752 l 699 752 l 699 488 l 1084 488 m 5 500 q 49 854 39 692 l 160 844 q 123 478 146 654 l 5 500 z "},"礼":{"ha":1389,"x_min":16,"x_max":1378,"o":"m 393 1159 q 517 987 438 1101 l 397 922 l 627 922 l 627 755 q 477 522 568 641 l 477 448 l 533 519 q 743 367 628 455 l 627 231 q 477 364 540 310 l 477 -181 l 294 -181 l 294 311 q 77 106 197 211 q 16 329 46 235 q 401 741 289 554 l 72 741 l 72 922 l 338 922 q 236 1079 288 1006 l 393 1159 m 1188 329 q 1378 254 1268 292 q 1316 -31 1352 81 q 1103 -153 1279 -153 l 963 -153 q 777 36 777 -153 l 777 1135 l 964 1135 l 964 83 q 1031 13 964 13 l 1066 13 q 1152 70 1138 13 q 1188 329 1176 200 z "},"骄":{"ha":1389,"x_min":11,"x_max":1386,"o":"m 1031 382 l 1123 382 q 960 616 1017 481 q 792 382 903 489 l 873 382 q 840 62 876 186 q 669 -195 791 -93 q 547 -66 614 -135 q 688 111 651 14 q 722 319 719 185 q 609 241 670 279 q 526 364 567 307 q 513 39 521 242 q 460 -127 505 -79 q 302 -172 414 -174 q 136 -168 237 -172 q 107 10 121 -63 q 285 -2 195 1 q 357 59 355 -3 q 374 379 366 245 l 30 379 l 77 882 l 233 882 l 198 542 l 277 542 l 308 937 l 35 937 l 35 1099 l 483 1099 l 439 542 l 536 542 q 528 402 533 511 q 781 646 700 500 l 537 646 l 537 800 l 840 800 q 861 934 854 863 q 602 927 738 930 q 581 1083 595 998 q 1284 1116 937 1087 l 1308 960 q 1028 942 1179 949 q 1012 800 1024 866 l 1354 800 l 1354 646 l 1107 646 q 1386 424 1206 492 q 1294 262 1335 340 q 1196 322 1241 290 l 1196 -176 l 1031 -176 l 1031 382 m 11 265 q 319 300 155 279 q 321 136 319 235 q 31 93 164 113 l 11 265 z "},"。":{"ha":1389,"x_min":71,"x_max":449,"o":"m 449 15 q 392 -123 449 -68 q 264 -177 336 -177 q 127 -120 184 -177 q 71 15 71 -63 q 127 149 71 94 q 261 203 183 203 q 393 150 336 203 q 449 15 449 96 m 262 -52 q 307 -33 288 -52 q 326 12 326 -14 q 306 61 326 43 q 258 79 286 79 q 213 59 231 79 q 195 11 195 39 q 213 -32 195 -13 q 262 -52 231 -52 z "}}}
